<?xml version="1.0" encoding="UTF-8" standalone="no"?>
<!-- Generator: Adobe Illustrator 13.0.2, SVG Export Plug-In . SVG Version: 6.00 Build 14948)  -->

<svg
   xmlns:dc="http://purl.org/dc/elements/1.1/"
   xmlns:cc="http://creativecommons.org/ns#"
   xmlns:rdf="http://www.w3.org/1999/02/22-rdf-syntax-ns#"
   xmlns:svg="http://www.w3.org/2000/svg"
   xmlns="http://www.w3.org/2000/svg"
   xmlns:sodipodi="http://sodipodi.sourceforge.net/DTD/sodipodi-0.dtd"
   xmlns:inkscape="http://www.inkscape.org/namespaces/inkscape"
   id="Layer_1"
   xml:space="preserve"
   height="446.94122"
   viewBox="0 0 296.0733 446.93383"
   width="296.08002"
   version="1.1"
   y="0px"
   x="0px"
   enable-background="new 0 0 176.486 181.437"
   inkscape:version="0.48.2 r9819"
   sodipodi:docname="XMPP_logo2.svg"><metadata
   id="metadata4562"><rdf:RDF><cc:Work
       rdf:about=""><dc:format>image/svg+xml</dc:format><dc:type
         rdf:resource="http://purl.org/dc/dcmitype/StillImage" /><dc:title></dc:title></cc:Work></rdf:RDF></metadata><defs
   id="defs4560" /><sodipodi:namedview
   pagecolor="#ffffff"
   bordercolor="#666666"
   borderopacity="1"
   objecttolerance="10"
   gridtolerance="10"
   guidetolerance="10"
   inkscape:pageopacity="0"
   inkscape:pageshadow="2"
   inkscape:window-width="1440"
   inkscape:window-height="852"
   id="namedview4558"
   showgrid="false"
   inkscape:zoom="0.91973764"
   inkscape:cx="144.97631"
   inkscape:cy="240.03367"
   inkscape:window-x="0"
   inkscape:window-y="0"
   inkscape:window-maximized="1"
   inkscape:current-layer="Layer_1"
   fit-margin-top="10"
   fit-margin-left="10"
   fit-margin-right="10"
   fit-margin-bottom="10" />
<linearGradient
   id="SVGID_1_"
   y2="0.00048828"
   gradientUnits="userSpaceOnUse"
   x2="-1807.2"
   gradientTransform="translate(1973.8176,116.18562)"
   y1="125.86"
   x1="-1807.2">
	<stop
   stop-color="#1b3967"
   offset=".011"
   id="stop4525" />
	<stop
   stop-color="#13b5ea"
   offset=".467"
   id="stop4527" />
	<stop
   stop-color="#002b5c"
   offset=".9945"
   id="stop4529" />
</linearGradient>
<rect
   style="fill:#0f3d7f;fill-opacity:1;fill-rule:evenodd;stroke:none"
   id="rect3105"
   width="276.07544"
   height="426.93414"
   x="9.9992924"
   y="9.9998341"
   rx="28.259888"
   inkscape:export-filename="/Users/mcnesium/Downloads/mobilis.png"
   inkscape:export-xdpi="131.61"
   inkscape:export-ydpi="131.61" /><rect
   rx="10.092817"
   y="40.025333"
   x="35.830723"
   height="340.30173"
   width="224.41258"
   id="rect3875"
   style="fill:#ffffff;fill-opacity:1;fill-rule:evenodd;stroke:none"
   inkscape:export-filename="/Users/mcnesium/Downloads/mobilis.png"
   inkscape:export-xdpi="131.61"
   inkscape:export-ydpi="131.61" /><rect
   style="fill:#ffffff;fill-opacity:1;fill-rule:evenodd;stroke:none"
   id="rect3877"
   width="36.146374"
   height="28.454603"
   x="129.96382"
   y="-423.21164"
   rx="2.6010633"
   transform="scale(1,-1)"
   inkscape:export-filename="/Users/mcnesium/Downloads/mobilis.png"
   inkscape:export-xdpi="131.61"
   inkscape:export-ydpi="131.61" />

<linearGradient
   id="SVGID_2_"
   y2="1.279e-13"
   gradientUnits="userSpaceOnUse"
   x2="-1073.2"
   gradientTransform="matrix(-1,0,0,1,-950.38238,116.18562)"
   y1="126.85"
   x1="-1073.2">
	<stop
   stop-color="#1b3967"
   offset=".011"
   id="stop4536" />
	<stop
   stop-color="#13b5ea"
   offset=".467"
   id="stop4538" />
	<stop
   stop-color="#002b5c"
   offset=".9945"
   id="stop4540" />
</linearGradient>




	
	
	
	<g
   id="g5342"><path
     style="fill:url(#SVGID_1_)"
     inkscape:connector-curvature="0"
     id="path4531"
     d="m 194.10762,130.37462 c 0.077,1.313 -1.786,0.968 -1.786,2.293 0,38.551 -44.72,96.831 -89.847,108.19 v 1.182 c 59.957,-5.51 126.73,-66.8 128.24,-125.85 l -36.6,14.189 z" /><path
     style="fill:#e96d1f"
     inkscape:connector-curvature="0"
     id="path4533"
     d="m 178.04762,134.14562 c 0.077,1.313 0.121,2.633 0.121,3.958 0,38.551 -30.7,90.497 -75.827,101.86 v 1.637 c 59.065,-3.823 105.81,-63.023 105.81,-109.2 0,-2.375 -0.125,-4.729 -0.371,-7.056 l -29.73,8.796 z" /><path
     style="fill:url(#SVGID_2_)"
     inkscape:connector-curvature="0"
     id="path4542"
     d="m 94.416621,130.37462 c -0.077,1.313 1.787,0.968 1.787,2.293 0,38.551 46.557999,97.366 91.687999,108.73 v 1.639 c -59.953,-5.52 -128.559999,-67.8 -130.069999,-126.85 l 36.599,14.189 z" /><path
     style="fill:#a0ce67"
     inkscape:connector-curvature="0"
     id="path4544"
     d="m 112.54862,135.11762 c -0.076,1.313 -0.12,2.63 -0.12,3.957 0,38.551 30.699,90.497 75.827,101.86 v 1.639 c -59.044,-2.79 -105.809999,-63.024 -105.809999,-109.2 0,-2.375 0.128,-4.729 0.371,-7.056 l 29.729999,8.798 z" /><path
     style="fill:#439639"
     inkscape:connector-curvature="0"
     id="path4546"
     d="m 82.530621,125.76862 7.617,2.722 c -0.041,0.962 -0.066,2.254 -0.066,3.225 0,41.219 37.270999,98.204 87.271999,107.12 3.245,1.088 7.538,2.077 10.932,2.931 v 1.638 c -65.254,-5.56 -111.099999,-71.866 -105.759999,-117.64 z" /><path
     style="fill:#d9541e"
     inkscape:connector-curvature="0"
     id="path4548"
     d="m 208.15762,124.94562 -7.833,2.625 c 0.041,0.963 0.191,2.203 0.191,3.173 0,41.219 -37.272,98.205 -87.274,107.12 -3.243,1.089 -7.538,2.077 -10.93,2.932 v 1.639 c 68.344,-8.66 111.18,-71.719 105.84,-117.49 z" /><path
     inkscape:connector-curvature="0"
     id="path4550"
     d="m 72.393621,282.89562 -13.388,-14.65 h 11.643 l 9.127,10.268 9.129,-10.268 h 11.642999 l -13.386999,14.646 14.400999,14.728 H 89.471621 l -9.697,-10.67 -9.693,10.67 h -12.092 l 14.404,-14.73 z" /><path
     inkscape:connector-curvature="0"
     id="path4552"
     d="m 104.91362,268.24562 h 13.836 l 10.183,18.905 10.183,-18.905 h 13.832 v 29.374 h -8.762 v -21.096 h -0.08 l -11.807,21.096 h -6.733 l -11.807,-21.096 h -0.082 v 21.096 h -8.764 v -29.37 z" /><path
     inkscape:connector-curvature="0"
     id="path4554"
     d="m 159.06762,268.24562 h 24.546 c 8.559,0 10.628,4.302 10.628,10.063 v 2.516 c 0,4.381 -1.908,9.41 -8.275,9.41 h -17.894 v 7.385 h -9.005 v -29.38 z m 9,14.69 h 13.997 c 2.109,0 2.924,-1.377 2.924,-3.123 v -1.135 c 0,-1.99 -0.976,-3.127 -3.694,-3.127 h -13.227 v 7.38 z" /><path
     inkscape:connector-curvature="0"
     id="path4556"
     d="m 199.12762,268.24562 h 24.546 c 8.561,0 10.63,4.302 10.63,10.063 v 2.516 c 0,4.381 -1.907,9.41 -8.275,9.41 h -17.893 v 7.385 h -9.008 v -29.38 z m 9.01,14.69 h 13.996 c 2.11,0 2.922,-1.377 2.922,-3.123 v -1.135 c 0,-1.99 -0.974,-3.127 -3.693,-3.127 h -13.225 v 7.38 z" /></g>
</svg>