<?xml version="1.0" encoding="UTF-8" standalone="no"?>
<!-- Generator: Adobe Illustrator 13.0.2, SVG Export Plug-In . SVG Version: 6.00 Build 14948)  -->

<svg
   xmlns:dc="http://purl.org/dc/elements/1.1/"
   xmlns:cc="http://creativecommons.org/ns#"
   xmlns:rdf="http://www.w3.org/1999/02/22-rdf-syntax-ns#"
   xmlns:svg="http://www.w3.org/2000/svg"
   xmlns="http://www.w3.org/2000/svg"
   xmlns:sodipodi="http://sodipodi.sourceforge.net/DTD/sodipodi-0.dtd"
   xmlns:inkscape="http://www.inkscape.org/namespaces/inkscape"
   id="Layer_1"
   xml:space="preserve"
   height="220"
   viewBox="0 0 219.99501 219.99636"
   width="220"
   version="1.1"
   y="0px"
   x="0px"
   enable-background="new 0 0 176.486 181.437"
   inkscape:version="0.48.2 r9819"
   sodipodi:docname="mobilis-logo.svg"
   inkscape:export-filename="/Users/mcnesium/Downloads/mobilis.png"
   inkscape:export-xdpi="131"
   inkscape:export-ydpi="131"><metadata
   id="metadata3103"><rdf:RDF><cc:Work
       rdf:about=""><dc:format>image/svg+xml</dc:format><dc:type
         rdf:resource="http://purl.org/dc/dcmitype/StillImage" /><dc:title></dc:title></cc:Work></rdf:RDF></metadata><defs
   id="defs3101" /><sodipodi:namedview
   pagecolor="#ffffff"
   bordercolor="#666666"
   borderopacity="1"
   objecttolerance="10"
   gridtolerance="10"
   guidetolerance="10"
   inkscape:pageopacity="0"
   inkscape:pageshadow="2"
   inkscape:window-width="1440"
   inkscape:window-height="852"
   id="namedview3099"
   showgrid="false"
   fit-margin-top="10"
   fit-margin-left="10"
   fit-margin-right="10"
   fit-margin-bottom="10"
   inkscape:zoom="2.2281509"
   inkscape:cx="80.70509"
   inkscape:cy="96.517683"
   inkscape:window-x="0"
   inkscape:window-y="0"
   inkscape:window-maximized="0"
   inkscape:current-layer="Layer_1" />
<linearGradient
   id="SVGID_1_"
   y2="0.00048828"
   gradientUnits="userSpaceOnUse"
   x2="-1807.2"
   gradientTransform="translate(1916,0)"
   y1="125.86"
   x1="-1807.2">
	<stop
   stop-color="#1b3967"
   offset=".011"
   id="stop3066" />
	<stop
   stop-color="#13b5ea"
   offset=".467"
   id="stop3068" />
	<stop
   stop-color="#002b5c"
   offset=".9945"
   id="stop3070" />
</linearGradient>


<linearGradient
   id="SVGID_2_"
   y2="1.279e-13"
   gradientUnits="userSpaceOnUse"
   x2="-1073.2"
   gradientTransform="matrix(-1,0,0,1,-1008.2,0)"
   y1="126.85"
   x1="-1073.2">
	<stop
   stop-color="#1b3967"
   offset=".011"
   id="stop3077" />
	<stop
   stop-color="#13b5ea"
   offset=".467"
   id="stop3079" />
	<stop
   stop-color="#002b5c"
   offset=".9945"
   id="stop3081" />
</linearGradient>




	
	
	
	
<rect
   style="fill:#0f3d7f;fill-opacity:1;fill-rule:evenodd;stroke:none"
   id="rect3105"
   width="139.99768"
   height="196.61171"
   x="39.998665"
   y="11.692326"
   rx="14.330571"
   inkscape:export-filename="/Users/mcnesium/Downloads/mobilis.png"
   inkscape:export-xdpi="131.61"
   inkscape:export-ydpi="131.61" /><rect
   rx="5.1180611"
   y="25.519669"
   x="53.097767"
   height="156.71576"
   width="113.79948"
   id="rect3875"
   style="fill:#ffffff;fill-opacity:1;fill-rule:evenodd;stroke:none"
   inkscape:export-filename="/Users/mcnesium/Downloads/mobilis.png"
   inkscape:export-xdpi="131.61"
   inkscape:export-ydpi="131.61" /><rect
   style="fill:#ffffff;fill-opacity:1;fill-rule:evenodd;stroke:none"
   id="rect3877"
   width="38.076794"
   height="13.103914"
   x="90.959106"
   y="-201.98463"
   rx="2.7399745"
   transform="scale(1,-1)"
   inkscape:export-filename="/Users/mcnesium/Downloads/mobilis.png"
   inkscape:export-xdpi="131.61"
   inkscape:export-ydpi="131.61" /><path
   sodipodi:type="arc"
   style="fill:#0f3d7f;fill-opacity:1;stroke:none"
   id="path3761"
   sodipodi:cx="42.898914"
   sodipodi:cy="47.450359"
   sodipodi:rx="39.598999"
   sodipodi:ry="39.598999"
   d="m 82.497913,47.450359 a 39.598999,39.598999 0 1 1 -79.1979977,0 39.598999,39.598999 0 1 1 79.1979977,0 z"
   transform="matrix(1.0566029,0,0,1.0566029,64.670393,42.964045)"
   inkscape:export-filename="/Users/mcnesium/Downloads/mobilis.png"
   inkscape:export-xdpi="131.61"
   inkscape:export-ydpi="131.61" /><rect
   style="fill:#ffffff;fill-opacity:1;stroke:none"
   id="rect3771"
   width="26.408964"
   height="28.692825"
   x="96.79303"
   y="108.64994"
   inkscape:export-filename="/Users/mcnesium/Downloads/mobilis.png"
   inkscape:export-xdpi="131.61"
   inkscape:export-ydpi="131.61" /><path
   style="fill:#0f3d7f;fill-opacity:1"
   d="m 149.16182,93.347341 c -8.29319,3.454099 -16.75671,6.271108 -25.42529,8.597789 0.89223,13.21991 -4.95455,25.89363 -13.51459,35.65328 -8.37776,-9.64826 -13.947514,-22.27398 -13.172759,-35.20629 -9.824098,-2.544036 -19.255541,-6.236232 -28.685649,-9.938733 -0.08875,21.569523 17.112913,40.902433 34.200668,52.466363 -3.244133,4.32292 -16.142231,5.87239 -16.075714,10.47467 9.612233,-8e-5 17.366824,-2.99722 23.730784,-5.99003 6.76837,3.30881 14.2883,5.9061 23.42166,5.92036 0.0318,-3.95179 -11.80779,-5.69992 -15.76078,-10.405 16.97583,-10.7949 32.00946,-28.22138 33.54288,-49.048294 -0.36748,-2.394954 1.67466,-4.761169 -2.26121,-2.524115 z"
   id="path3072"
   inkscape:connector-curvature="0"
   inkscape:export-filename="/Users/mcnesium/Downloads/mobilis.png"
   inkscape:export-xdpi="131.61"
   inkscape:export-ydpi="131.61"
   sodipodi:nodetypes="cccccccccccc" /><path
   transform="matrix(0.74124321,0,0,0.74124321,78.19898,57.927973)"
   d="m 82.497913,47.450359 a 39.598999,39.598999 0 1 1 -79.1979977,0 39.598999,39.598999 0 1 1 79.1979977,0 z"
   sodipodi:ry="39.598999"
   sodipodi:rx="39.598999"
   sodipodi:cy="47.450359"
   sodipodi:cx="42.898914"
   id="path3767"
   style="fill:#ffffff;fill-opacity:1;stroke:none"
   sodipodi:type="arc"
   inkscape:export-filename="/Users/mcnesium/Downloads/mobilis.png"
   inkscape:export-xdpi="131.61"
   inkscape:export-ydpi="131.61" /><path
   transform="matrix(0.33442496,0,0,0.33442496,95.651041,77.231644)"
   d="m 82.497913,47.450359 a 39.598999,39.598999 0 1 1 -79.1979977,0 39.598999,39.598999 0 1 1 79.1979977,0 z"
   sodipodi:ry="39.598999"
   sodipodi:rx="39.598999"
   sodipodi:cy="47.450359"
   sodipodi:cx="42.898914"
   id="path3769"
   style="fill:#0f3d7f;fill-opacity:1;stroke:none"
   sodipodi:type="arc"
   inkscape:export-filename="/Users/mcnesium/Downloads/mobilis.png"
   inkscape:export-xdpi="131.61"
   inkscape:export-ydpi="131.61" /></svg>