<?xml version="1.0" encoding="UTF-8" standalone="no"?>
<!-- Generator: Adobe Illustrator 13.0.2, SVG Export Plug-In . SVG Version: 6.00 Build 14948)  -->

<svg
   xmlns:dc="http://purl.org/dc/elements/1.1/"
   xmlns:cc="http://creativecommons.org/ns#"
   xmlns:rdf="http://www.w3.org/1999/02/22-rdf-syntax-ns#"
   xmlns:svg="http://www.w3.org/2000/svg"
   xmlns="http://www.w3.org/2000/svg"
   xmlns:sodipodi="http://sodipodi.sourceforge.net/DTD/sodipodi-0.dtd"
   xmlns:inkscape="http://www.inkscape.org/namespaces/inkscape"
   id="Layer_1"
   xml:space="preserve"
   height="204.96327"
   viewBox="0 0 856.68951 204.95988"
   width="856.70892"
   version="1.1"
   y="0px"
   x="0px"
   enable-background="new 0 0 176.486 181.437"
   inkscape:version="0.48.4 r9939"
   sodipodi:docname="mobilis-logo-name.svg"
   inkscape:export-filename="/Users/mcnesium/Downloads/mobilis.png"
   inkscape:export-xdpi="131"
   inkscape:export-ydpi="131"><metadata
   id="metadata3103"><rdf:RDF><cc:Work
       rdf:about=""><dc:format>image/svg+xml</dc:format><dc:type
         rdf:resource="http://purl.org/dc/dcmitype/StillImage" /><dc:title></dc:title></cc:Work></rdf:RDF></metadata><defs
   id="defs3101" /><sodipodi:namedview
   pagecolor="#ffffff"
   bordercolor="#666666"
   borderopacity="1"
   objecttolerance="10"
   gridtolerance="10"
   guidetolerance="10"
   inkscape:pageopacity="0"
   inkscape:pageshadow="2"
   inkscape:window-width="1920"
   inkscape:window-height="1018"
   id="namedview3099"
   showgrid="false"
   fit-margin-top="10"
   fit-margin-left="10"
   fit-margin-right="10"
   fit-margin-bottom="10"
   inkscape:zoom="1.2553965"
   inkscape:cx="428.35446"
   inkscape:cy="98.346765"
   inkscape:window-x="-8"
   inkscape:window-y="-8"
   inkscape:window-maximized="1"
   inkscape:current-layer="Layer_1" />
<linearGradient
   id="SVGID_1_"
   y2="0.00048828"
   gradientUnits="userSpaceOnUse"
   x2="-1807.2"
   gradientTransform="translate(1916,0)"
   y1="125.86"
   x1="-1807.2">
	<stop
   stop-color="#1b3967"
   offset=".011"
   id="stop3066" />
	<stop
   stop-color="#13b5ea"
   offset=".467"
   id="stop3068" />
	<stop
   stop-color="#002b5c"
   offset=".9945"
   id="stop3070" />
</linearGradient>


<linearGradient
   id="SVGID_2_"
   y2="1.279e-013"
   gradientUnits="userSpaceOnUse"
   x2="-1073.2"
   gradientTransform="matrix(-1,0,0,1,-1008.2,0)"
   y1="126.85"
   x1="-1073.2">
	<stop
   stop-color="#1b3967"
   offset=".011"
   id="stop3077" />
	<stop
   stop-color="#13b5ea"
   offset=".467"
   id="stop3079" />
	<stop
   stop-color="#002b5c"
   offset=".9945"
   id="stop3081" />
</linearGradient>




	
	
	
	
<path
   sodipodi:type="arc"
   style="fill:#0f3d7f;fill-opacity:1;stroke:none"
   id="path3761"
   sodipodi:cx="42.898914"
   sodipodi:cy="47.450359"
   sodipodi:rx="39.598999"
   sodipodi:ry="39.598999"
   d="m 82.497913,47.450359 a 39.598999,39.598999 0 1 1 -79.1979977,0 39.598999,39.598999 0 1 1 79.1979977,0 z"
   transform="matrix(1.7837243,0,0,1.7837243,15.887517,-4.0048277)"
   inkscape:export-filename="/Users/mcnesium/Downloads/mobilis.png"
   inkscape:export-xdpi="131.61"
   inkscape:export-ydpi="131.61" /><rect
   style="fill:#ffffff;fill-opacity:1;stroke:none"
   id="rect3771"
   width="44.582794"
   height="48.438339"
   x="70.115944"
   y="106.88407"
   inkscape:export-filename="/Users/mcnesium/Downloads/mobilis.png"
   inkscape:export-xdpi="131.61"
   inkscape:export-ydpi="131.61" /><path
   style="fill:#0f3d7f;fill-opacity:1"
   d="m 169.92638,72.148434 c -16.41494,6.8368 -33.16705,12.41259 -50.32502,17.01786 1.76601,26.166566 -9.8067,51.252036 -26.749823,70.569586 C 76.269177,140.6388 65.244797,115.64835 66.778297,90.051034 47.333167,85.015554 28.665237,77.707474 9.9999469,70.379004 9.8242769,113.0722 43.872037,151.3384 77.694347,174.22722 c -6.42122,8.55649 -31.9508,11.6234 -31.81914,20.73283 19.02577,-1.5e-4 34.37467,-5.93248 46.97103,-11.85623 13.396843,6.54922 28.281253,11.69011 46.359203,11.71834 0.063,-7.8219 -23.37152,-11.28202 -31.19578,-20.59494 33.60076,-21.36665 63.35725,-55.8594 66.39241,-97.082726 -0.72736,-4.7404 3.31471,-9.423923 -4.47569,-4.99606 z"
   id="path3072"
   inkscape:connector-curvature="0"
   inkscape:export-filename="/Users/mcnesium/Downloads/mobilis.png"
   inkscape:export-xdpi="131.61"
   inkscape:export-ydpi="131.61"
   sodipodi:nodetypes="cccccccccccc" /><path
   transform="matrix(1.2513438,0,0,1.2513438,38.726057,21.256812)"
   d="m 82.497913,47.450359 a 39.598999,39.598999 0 1 1 -79.1979977,0 39.598999,39.598999 0 1 1 79.1979977,0 z"
   sodipodi:ry="39.598999"
   sodipodi:rx="39.598999"
   sodipodi:cy="47.450359"
   sodipodi:cx="42.898914"
   id="path3767"
   style="fill:#ffffff;fill-opacity:1;stroke:none"
   sodipodi:type="arc"
   inkscape:export-filename="/Users/mcnesium/Downloads/mobilis.png"
   inkscape:export-xdpi="131.61"
   inkscape:export-ydpi="131.61" /><path
   transform="matrix(0.56456585,0,0,0.56456585,68.188087,53.844671)"
   d="m 82.497913,47.450359 a 39.598999,39.598999 0 1 1 -79.1979977,0 39.598999,39.598999 0 1 1 79.1979977,0 z"
   sodipodi:ry="39.598999"
   sodipodi:rx="39.598999"
   sodipodi:cy="47.450359"
   sodipodi:cx="42.898914"
   id="path3769"
   style="fill:#0f3d7f;fill-opacity:1;stroke:none"
   sodipodi:type="arc"
   inkscape:export-filename="/Users/mcnesium/Downloads/mobilis.png"
   inkscape:export-xdpi="131.61"
   inkscape:export-ydpi="131.61" /><g
   style="font-size:45.05125809px;font-style:normal;font-variant:normal;font-weight:normal;font-stretch:normal;line-height:125%;letter-spacing:0px;word-spacing:0px;fill:#0f3d7f;fill-opacity:1;stroke:none;font-family:Asap;-inkscape-font-specification:Asap"
   id="text3019"
   transform="translate(316.39046,-31.346132)"><path
     d="m -93.620542,188.84149 c -0.0229,1.80892 0.795192,3.17719 2.450034,4.10492 1.654843,0.9277 4.276846,1.39338 7.865933,1.39697 l 4.986053,0 c 3.589086,-0.003 6.211052,-0.46927 7.865932,-1.39697 1.654804,-0.92773 2.471483,-2.29604 2.450034,-4.10492 l 0,-71.18016 0.687759,-0.17212 24.930228,44.5306 c 0.759317,1.03879 1.690641,1.84112 2.793933,2.40705 1.103139,0.56599 2.464307,0.85253 4.08339,0.85966 l 4.986054,0 c 1.618967,-0.007 2.980098,-0.29387 4.083428,-0.85966 1.10314,-0.56593 2.034425,-1.36826 2.793896,-2.40705 l 24.9302653,-44.5306 0.6877208,0.17212 0,71.18016 c -0.022899,1.80892 0.7950772,3.17719 2.4500346,4.10492 1.6547664,0.9277 4.2767304,1.39338 7.8659323,1.39697 l 4.986053,0 c 3.588972,-0.003 6.210937,-0.46927 7.865933,-1.39697 1.654728,-0.92773 2.471406,-2.29604 2.450033,-4.10492 l 0,-110.036964 c 0.0229,-1.80876 -0.795305,-3.177065 -2.450033,-4.104916 -1.654996,-0.927583 -4.276961,-1.393226 -7.865933,-1.396928 l -8.9405255,0 c -2.5146086,-0.0229 -4.706766,0.322488 -6.5763982,1.031582 -1.86989818,0.709359 -3.2883511,1.912871 -4.2553587,3.610611 L -33.100184,131.75983 -63.360363,77.944875 c -0.96716,-1.69774 -2.385613,-2.901252 -4.255321,-3.610611 -1.869822,-0.709094 -4.061942,-1.052954 -6.576437,-1.031582 l -9.112454,0 c -3.589087,0.0037 -6.21109,0.469345 -7.865933,1.396966 -1.654842,0.927813 -2.47152,2.296118 -2.450034,4.104878 z"
     style="font-weight:bold;-inkscape-font-specification:Asap Bold"
     id="path3024"
     inkscape:connector-curvature="0" /><path
     d="m 47.323246,133.82304 c 0.08588,19.94066 4.857096,35.16385 14.313411,45.66961 9.456277,10.50583 23.081933,15.79992 40.877033,15.88231 17.78781,-0.0824 31.3848,-5.37648 40.79105,-15.88231 9.40604,-10.50576 14.14853,-25.72895 14.22747,-45.66961 -0.079,-19.94055 -4.82143,-35.163767 -14.22747,-45.66967 C 133.89849,77.647689 120.3015,72.353573 102.51369,72.271062 84.71859,72.353497 71.092934,77.647689 61.636657,88.15337 52.180342,98.659273 47.40923,113.88249 47.323246,133.82304 z m 55.190444,39.02871 c -9.216379,-0.0465 -16.186817,-3.39204 -20.911335,-10.03656 -4.724592,-6.64443 -7.095851,-16.30851 -7.113712,-28.99215 0.01908,-12.6764 2.38912,-22.31182 7.113712,-28.90623 4.724518,-6.59422 11.694956,-9.911119 20.911335,-9.950616 9.20909,0.03968 16.15086,3.356396 20.82534,9.950616 4.67438,6.59441 7.01693,16.22983 7.02777,28.90623 -0.0114,12.68364 -2.35339,22.34772 -7.02777,28.99215 -4.67448,6.64448 -11.61625,9.99001 -20.82534,10.03656 z"
     style="font-weight:bold;-inkscape-font-specification:Asap Bold"
     id="path3026"
     inkscape:connector-curvature="0" /><path
     d="m 177.04279,187.12219 c -0.0153,2.39271 0.53014,4.14072 1.6334,5.24393 1.10321,1.10325 2.85118,1.64771 5.24392,1.63336 l 36.44979,0 c 14.50316,-0.068 25.29908,-3.11268 32.38783,-9.1339 7.08853,-6.02122 10.62034,-14.61072 10.59537,-25.76843 -0.10762,-6.79488 -2.25673,-12.80537 -6.44752,-18.03144 -4.19093,-5.226 -9.77872,-8.6145 -16.76345,-10.16552 l -0.17211,-0.68776 c 5.28686,-2.23865 9.67114,-5.67012 13.15287,-10.29448 3.48154,-4.62419 5.28683,-9.90395 5.4159,-15.83931 0.12517,-9.166063 -3.00536,-16.494681 -9.39185,-21.985915 -6.38665,-5.490968 -16.78143,-8.306387 -31.1843,-8.446182 l -34.04272,0 c -2.39274,-0.01527 -4.14071,0.530254 -5.24392,1.633356 -1.10326,1.103368 -1.64771,2.851332 -1.6334,5.243968 z m 26.47768,-65.50639 0,-25.617988 12.20724,0 c 10.45916,0.0305 15.67446,4.269748 15.64588,12.723028 -0.0229,3.69664 -1.39701,6.74844 -4.1264,9.15543 -2.72948,2.4071 -6.68395,3.65362 -11.86334,3.73953 z m 0,49.86052 0,-27.33732 14.09847,0 c 5.96386,4e-5 10.5416,1.1176 13.73316,3.3527 3.19141,2.23516 4.80328,5.58782 4.83561,10.05805 -0.0343,4.49178 -1.42571,7.93042 -4.16937,10.31596 -2.74384,2.38561 -6.62667,3.58911 -11.64844,3.61061 z"
     style="font-weight:bold;-inkscape-font-specification:Asap Bold"
     id="path3028"
     inkscape:connector-curvature="0" /><path
     d="m 278.09762,188.84149 c -0.0229,1.81605 0.79519,3.21302 2.45007,4.19087 1.65485,0.97788 4.27681,1.47219 7.86594,1.48295 l 6.01763,0 c 3.58905,-0.0114 6.21105,-0.50507 7.86593,-1.48295 1.6548,-0.97785 2.47148,-2.37482 2.45004,-4.19087 l 0,-110.036964 c 0.0229,-1.815934 -0.79524,-3.212863 -2.45004,-4.190861 -1.65488,-0.97777 -4.27688,-1.472074 -7.86593,-1.482913 l -6.01763,0 c -3.58913,0.01145 -6.21114,0.505181 -7.86594,1.482913 -1.65488,0.977998 -2.47155,2.374927 -2.45007,4.190861 z"
     style="font-weight:bold;-inkscape-font-specification:Asap Bold"
     id="path3030"
     inkscape:connector-curvature="0" /><path
     d="m 327.48598,187.12219 c -0.0153,2.39271 0.5301,4.14072 1.63336,5.24393 1.10322,1.10325 2.85118,1.64771 5.24397,1.63336 l 57.94132,0 c 1.79449,0.0191 3.10548,-0.66264 3.93299,-2.04168 0.82733,-1.37906 1.23568,-3.56401 1.225,-6.55495 l 0,-5.32991 c 0.0115,-2.9909 -0.39767,-5.17588 -1.225,-6.55495 -0.82751,-1.37903 -2.1385,-2.05958 -3.93299,-2.04167 l -38.34101,0 0,-92.671794 c 0.0229,-1.80876 -0.79523,-3.177065 -2.45003,-4.104916 -1.65489,-0.927583 -4.27685,-1.393226 -7.86594,-1.396928 l -5.8457,0 c -3.58913,0.0037 -6.21109,0.469345 -7.86593,1.396966 -1.65488,0.927813 -2.47156,2.296118 -2.45004,4.104878 z"
     style="font-weight:bold;-inkscape-font-specification:Asap Bold"
     id="path3032"
     inkscape:connector-curvature="0" /><path
     d="m 409.73538,188.84149 c -0.0229,1.81605 0.79515,3.21302 2.45004,4.19087 1.65484,0.97788 4.27681,1.47219 7.86593,1.48295 l 6.01763,0 c 3.58909,-0.0114 6.21106,-0.50507 7.86593,-1.48295 1.65481,-0.97785 2.47149,-2.37482 2.45004,-4.19087 l 0,-110.036964 c 0.0229,-1.815934 -0.79523,-3.212863 -2.45004,-4.190861 -1.65487,-0.97777 -4.27684,-1.472074 -7.86593,-1.482913 l -6.01763,0 c -3.58912,0.01145 -6.21109,0.505181 -7.86593,1.482913 -1.65489,0.977998 -2.47156,2.374927 -2.45004,4.190861 z"
     style="font-weight:bold;-inkscape-font-specification:Asap Bold"
     id="path3034"
     inkscape:connector-curvature="0" /><path
     d="m 451.04287,180.24486 c 0.05,3.18795 3.51745,6.44036 10.40192,9.75721 6.88446,3.31686 16.88522,5.10783 30.0023,5.37289 9.81804,0.1935 18.63674,-2.60048 26.45615,-8.38172 7.8193,-5.78125 11.95283,-15.71035 12.40065,-29.78735 -0.25875,-9.90357 -2.84682,-17.37996 -7.76384,-22.42917 -4.91717,-5.04914 -10.61064,-8.85584 -17.08044,-11.4201 -6.46992,-2.56415 -12.16343,-5.07062 -17.08047,-7.51939 -4.91713,-2.44863 -7.50505,-6.02428 -7.76381,-10.727 -0.17212,-2.15266 0.81664,-4.33761 2.96582,-6.554919 2.14912,-2.217154 6.49042,-3.413484 13.02392,-3.589117 5.69522,0.179379 10.03653,0.895609 13.02391,2.149186 2.98728,1.253766 5.00747,1.970155 6.06062,2.149144 2.19925,-0.33318 4.29108,-2.245783 6.27554,-5.738267 1.98432,-3.492263 3.04459,-6.56556 3.18077,-9.219888 -0.15037,-2.983647 -3.0304,-5.698733 -8.63964,-8.145332 -5.60935,-2.446333 -13.04544,-3.742966 -22.30826,-3.889975 -10.4987,-0.111058 -19.80453,2.60418 -27.91762,8.145333 -8.11308,5.541344 -12.38989,14.574987 -12.83046,27.100895 0.25875,9.90188 2.84672,17.38186 7.76385,22.43993 4.91705,5.05818 10.61055,8.88995 17.08044,11.49532 6.46984,2.60544 12.16331,5.17996 17.08043,7.72354 4.91705,2.54365 7.50502,6.25185 7.76385,11.12457 -0.21143,5.03625 -1.98085,8.41757 -5.30839,10.14405 -3.3277,1.72651 -6.94545,2.52888 -10.85328,2.40705 -6.87733,-0.32936 -12.42219,-1.64766 -16.63449,-3.95443 -4.21239,-2.30676 -7.09227,-3.62492 -8.63964,-3.95447 -2.02382,0.30455 -4.25178,2.18857 -6.68387,5.65228 -2.43218,3.46376 -3.75747,6.68033 -3.97596,9.64973 z"
     style="font-weight:bold;-inkscape-font-specification:Asap Bold"
     id="path3036"
     inkscape:connector-curvature="0" /></g></svg>