<?xml version="1.0" encoding="UTF-8" standalone="no"?>
<!-- Generator: Adobe Illustrator 13.0.2, SVG Export Plug-In . SVG Version: 6.00 Build 14948)  -->

<svg
   xmlns:dc="http://purl.org/dc/elements/1.1/"
   xmlns:cc="http://creativecommons.org/ns#"
   xmlns:rdf="http://www.w3.org/1999/02/22-rdf-syntax-ns#"
   xmlns:svg="http://www.w3.org/2000/svg"
   xmlns="http://www.w3.org/2000/svg"
   xmlns:sodipodi="http://sodipodi.sourceforge.net/DTD/sodipodi-0.dtd"
   xmlns:inkscape="http://www.inkscape.org/namespaces/inkscape"
   id="Layer_1"
   xml:space="preserve"
   height="261.18829"
   viewBox="0 0 184.81469 261.18397"
   width="184.81888"
   version="1.1"
   y="0px"
   x="0px"
   enable-background="new 0 0 176.486 181.437"
   inkscape:version="0.48.4 r9939"
   sodipodi:docname="mobilis-logo.svg"
   inkscape:export-filename="/Users/mcnesium/Downloads/mobilis.png"
   inkscape:export-xdpi="131"
   inkscape:export-ydpi="131"><metadata
   id="metadata3103"><rdf:RDF><cc:Work
       rdf:about=""><dc:format>image/svg+xml</dc:format><dc:type
         rdf:resource="http://purl.org/dc/dcmitype/StillImage" /><dc:title></dc:title></cc:Work></rdf:RDF></metadata><defs
   id="defs3101" /><sodipodi:namedview
   pagecolor="#ffffff"
   bordercolor="#666666"
   borderopacity="1"
   objecttolerance="10"
   gridtolerance="10"
   guidetolerance="10"
   inkscape:pageopacity="0"
   inkscape:pageshadow="2"
   inkscape:window-width="1920"
   inkscape:window-height="1018"
   id="namedview3099"
   showgrid="false"
   fit-margin-top="10"
   fit-margin-left="10"
   fit-margin-right="10"
   fit-margin-bottom="10"
   inkscape:zoom="2.2281509"
   inkscape:cx="286.24642"
   inkscape:cy="100.85014"
   inkscape:window-x="-8"
   inkscape:window-y="-8"
   inkscape:window-maximized="1"
   inkscape:current-layer="text3019" />
<linearGradient
   id="SVGID_1_"
   y2="0.00048828"
   gradientUnits="userSpaceOnUse"
   x2="-1807.2"
   gradientTransform="translate(1916,0)"
   y1="125.86"
   x1="-1807.2">
	<stop
   stop-color="#1b3967"
   offset=".011"
   id="stop3066" />
	<stop
   stop-color="#13b5ea"
   offset=".467"
   id="stop3068" />
	<stop
   stop-color="#002b5c"
   offset=".9945"
   id="stop3070" />
</linearGradient>


<linearGradient
   id="SVGID_2_"
   y2="1.279e-013"
   gradientUnits="userSpaceOnUse"
   x2="-1073.2"
   gradientTransform="matrix(-1,0,0,1,-1008.2,0)"
   y1="126.85"
   x1="-1073.2">
	<stop
   stop-color="#1b3967"
   offset=".011"
   id="stop3077" />
	<stop
   stop-color="#13b5ea"
   offset=".467"
   id="stop3079" />
	<stop
   stop-color="#002b5c"
   offset=".9945"
   id="stop3081" />
</linearGradient>




	
	
	
	
<path
   sodipodi:type="arc"
   style="fill:#0f3d7f;fill-opacity:1;stroke:none"
   id="path3761"
   sodipodi:cx="42.898914"
   sodipodi:cy="47.450359"
   sodipodi:rx="39.598999"
   sodipodi:ry="39.598999"
   d="m 82.497913,47.450359 a 39.598999,39.598999 0 1 1 -79.1979977,0 39.598999,39.598999 0 1 1 79.1979977,0 z"
   transform="matrix(1.7837243,0,0,1.7837243,15.887406,-4.0048276)"
   inkscape:export-filename="/Users/mcnesium/Downloads/mobilis.png"
   inkscape:export-xdpi="131.61"
   inkscape:export-ydpi="131.61" /><rect
   style="fill:#ffffff;fill-opacity:1;stroke:none"
   id="rect3771"
   width="44.582794"
   height="48.438339"
   x="70.115837"
   y="106.88407"
   inkscape:export-filename="/Users/mcnesium/Downloads/mobilis.png"
   inkscape:export-xdpi="131.61"
   inkscape:export-ydpi="131.61" /><path
   style="fill:#0f3d7f;fill-opacity:1"
   d="m 169.92627,72.148434 c -16.41494,6.8368 -33.16705,12.41259 -50.32502,17.01786 1.76601,26.166566 -9.8067,51.252036 -26.749824,70.569586 C 76.269066,140.6388 65.244686,115.64835 66.778186,90.051034 47.333056,85.015554 28.665126,77.707474 9.9998364,70.379004 9.8241664,113.0722 43.871926,151.3384 77.694236,174.22722 c -6.42122,8.55649 -31.9508,11.6234 -31.81914,20.73283 19.02577,-1.5e-4 34.37467,-5.93248 46.97103,-11.85623 13.396844,6.54922 28.281254,11.69011 46.359204,11.71834 0.063,-7.8219 -23.37152,-11.28202 -31.19578,-20.59494 33.60076,-21.36665 63.35725,-55.8594 66.39241,-97.082726 -0.72736,-4.7404 3.31471,-9.423923 -4.47569,-4.99606 z"
   id="path3072"
   inkscape:connector-curvature="0"
   inkscape:export-filename="/Users/mcnesium/Downloads/mobilis.png"
   inkscape:export-xdpi="131.61"
   inkscape:export-ydpi="131.61"
   sodipodi:nodetypes="cccccccccccc" /><path
   transform="matrix(1.2513438,0,0,1.2513438,38.725946,21.256812)"
   d="m 82.497913,47.450359 a 39.598999,39.598999 0 1 1 -79.1979977,0 39.598999,39.598999 0 1 1 79.1979977,0 z"
   sodipodi:ry="39.598999"
   sodipodi:rx="39.598999"
   sodipodi:cy="47.450359"
   sodipodi:cx="42.898914"
   id="path3767"
   style="fill:#ffffff;fill-opacity:1;stroke:none"
   sodipodi:type="arc"
   inkscape:export-filename="/Users/mcnesium/Downloads/mobilis.png"
   inkscape:export-xdpi="131.61"
   inkscape:export-ydpi="131.61" /><path
   transform="matrix(0.56456585,0,0,0.56456585,68.187976,53.844671)"
   d="m 82.497913,47.450359 a 39.598999,39.598999 0 1 1 -79.1979977,0 39.598999,39.598999 0 1 1 79.1979977,0 z"
   sodipodi:ry="39.598999"
   sodipodi:rx="39.598999"
   sodipodi:cy="47.450359"
   sodipodi:cx="42.898914"
   id="path3769"
   style="fill:#0f3d7f;fill-opacity:1;stroke:none"
   sodipodi:type="arc"
   inkscape:export-filename="/Users/mcnesium/Downloads/mobilis.png"
   inkscape:export-xdpi="131.61"
   inkscape:export-ydpi="131.61" /><g
   style="font-size:45.05125809px;font-style:normal;font-variant:normal;font-weight:normal;font-stretch:normal;line-height:125%;letter-spacing:0px;word-spacing:0px;fill:#0f3d7f;fill-opacity:1;stroke:none;font-family:Asap;-inkscape-font-specification:Asap"
   id="text3019"
   transform="translate(316.39035,-32.201976)"><path
     d="m -305.72076,281.67173 c -0.006,0.47398 0.20836,0.8325 0.64197,1.07559 0.43361,0.24308 1.12064,0.3651 2.06107,0.36604 l 1.30647,0 c 0.94043,-9.4e-4 1.62745,-0.12296 2.06107,-0.36604 0.4336,-0.24309 0.64759,-0.60162 0.64197,-1.07559 l 0,-18.65098 0.18021,-0.0451 6.53234,11.66813 c 0.19896,0.27219 0.44299,0.48242 0.73208,0.63071 0.28905,0.1483 0.64571,0.22338 1.06995,0.22525 l 1.30647,0 c 0.42421,-0.002 0.78086,-0.077 1.06996,-0.22525 0.28905,-0.14829 0.53307,-0.35852 0.73207,-0.63071 l 6.53235,-11.66813 0.1802,0.0451 0,18.65098 c -0.006,0.47398 0.20833,0.8325 0.64197,1.07559 0.43359,0.24308 1.12061,0.3651 2.06107,0.36604 l 1.30647,0 c 0.9404,-9.4e-4 1.62742,-0.12296 2.06107,-0.36604 0.43358,-0.24309 0.64757,-0.60162 0.64197,-1.07559 l 0,-28.83243 c 0.006,-0.47394 -0.20839,-0.83247 -0.64197,-1.07559 -0.43365,-0.24305 -1.12067,-0.36506 -2.06107,-0.36603 l -2.34264,0 c -0.65889,-0.006 -1.23329,0.0845 -1.72318,0.2703 -0.48996,0.18587 -0.86163,0.50122 -1.11501,0.94607 l -8.01902,14.10086 -7.92892,-14.10086 c -0.25342,-0.44485 -0.62509,-0.7602 -1.115,-0.94607 -0.48994,-0.1858 -1.06433,-0.2759 -1.72319,-0.2703 l -2.38769,0 c -0.94043,9.7e-4 -1.62746,0.12298 -2.06107,0.36604 -0.43361,0.24311 -0.6476,0.60164 -0.64197,1.07558 z"
     style="font-weight:bold;-inkscape-font-specification:Asap Bold"
     id="path3024"
     inkscape:connector-curvature="0" /><path
     d="m -268.78998,267.25552 c 0.0225,5.22495 1.27268,9.21381 3.75047,11.96658 2.47778,2.75279 6.04804,4.13997 10.7108,4.16156 4.66085,-0.0216 8.2236,-1.40877 10.68827,-4.16156 2.46462,-2.75277 3.70727,-6.74163 3.72795,-11.96658 -0.0207,-5.22492 -1.26333,-9.21378 -3.72795,-11.96659 -2.46467,-2.75275 -6.02742,-4.13994 -10.68827,-4.16156 -4.66276,0.0216 -8.23302,1.40881 -10.7108,4.16156 -2.47779,2.75281 -3.72794,6.74167 -3.75047,11.96659 z m 14.46127,10.2265 c -2.41492,-0.0122 -4.24135,-0.8888 -5.47929,-2.62983 -1.23796,-1.74101 -1.85929,-4.27324 -1.86397,-7.59667 0.005,-3.32153 0.62601,-5.84625 1.86397,-7.57415 1.23794,-1.72785 3.06437,-2.59696 5.47929,-2.60731 2.41301,0.0104 4.23193,0.87946 5.45676,2.60731 1.2248,1.7279 1.83861,4.25262 1.84145,7.57415 -0.003,3.32343 -0.61665,5.85566 -1.84145,7.59667 -1.22483,1.74102 -3.04375,2.61763 -5.45676,2.62983 z"
     style="font-weight:bold;-inkscape-font-specification:Asap Bold"
     id="path3026"
     inkscape:connector-curvature="0" /><path
     d="m -234.80023,281.22123 c -0.004,0.62695 0.13891,1.08497 0.42799,1.37404 0.28907,0.28908 0.74708,0.43174 1.37404,0.42798 l 9.55075,0 c 3.80019,-0.0178 6.62899,-0.8156 8.48642,-2.39331 1.85737,-1.57771 2.78279,-3.82837 2.77625,-6.75197 -0.0282,-1.78043 -0.59132,-3.35533 -1.68941,-4.72469 -1.09813,-1.36934 -2.56227,-2.25721 -4.39244,-2.66362 l -0.0451,-0.18021 c 1.38529,-0.58658 2.53408,-1.48571 3.44638,-2.69741 0.91225,-1.21165 1.38528,-2.59508 1.4191,-4.15029 0.0328,-2.40174 -0.78748,-4.32202 -2.4609,-5.76086 -1.67346,-1.43877 -4.39715,-2.17648 -8.17106,-2.21311 l -8.92004,0 c -0.62696,-0.004 -1.08497,0.13894 -1.37404,0.42798 -0.28908,0.28911 -0.43174,0.74712 -0.42799,1.37405 z m 6.93781,-17.16431 0,-6.71255 3.1986,0 c 2.74056,0.008 4.1071,1.11878 4.09961,3.33375 -0.006,0.96861 -0.36605,1.76826 -1.08122,2.39895 -0.71519,0.63072 -1.75136,0.95734 -3.10849,0.97985 z m 0,13.0647 0,-7.16306 3.69415,0 c 1.56268,1e-5 2.76216,0.29284 3.59843,0.87849 0.83623,0.58567 1.25858,1.46415 1.26705,2.63546 -0.009,1.17696 -0.37357,2.07797 -1.09248,2.70304 -0.71895,0.62509 -1.73635,0.94044 -3.05218,0.94607 z"
     style="font-weight:bold;-inkscape-font-specification:Asap Bold"
     id="path3028"
     inkscape:connector-curvature="0" /><path
     d="m -208.32135,281.67173 c -0.006,0.47585 0.20836,0.84189 0.64198,1.09811 0.43361,0.25623 1.12063,0.38575 2.06107,0.38857 l 1.57677,0 c 0.94042,-0.003 1.62745,-0.13234 2.06107,-0.38857 0.4336,-0.25622 0.64759,-0.62226 0.64197,-1.09811 l 0,-28.83243 c 0.006,-0.47582 -0.20837,-0.84185 -0.64197,-1.09811 -0.43362,-0.2562 -1.12065,-0.38572 -2.06107,-0.38856 l -1.57677,0 c -0.94044,0.003 -1.62747,0.13237 -2.06107,0.38856 -0.43362,0.25626 -0.64761,0.62229 -0.64198,1.09811 z"
     style="font-weight:bold;-inkscape-font-specification:Asap Bold"
     id="path3030"
     inkscape:connector-curvature="0" /><path
     d="m -195.38037,281.22123 c -0.004,0.62695 0.1389,1.08497 0.42798,1.37404 0.28907,0.28908 0.74708,0.43174 1.37405,0.42798 l 15.18207,0 c 0.4702,0.005 0.81371,-0.17363 1.03054,-0.53497 0.21678,-0.36135 0.32378,-0.93386 0.32098,-1.71756 l 0,-1.39657 c 0.003,-0.78369 -0.1042,-1.35621 -0.32098,-1.71756 -0.21683,-0.36134 -0.56034,-0.53966 -1.03054,-0.53497 l -10.0463,0 0,-24.28232 c 0.006,-0.47394 -0.20837,-0.83247 -0.64197,-1.07559 -0.43362,-0.24305 -1.12064,-0.36506 -2.06107,-0.36603 l -1.53172,0 c -0.94044,9.7e-4 -1.62746,0.12298 -2.06107,0.36604 -0.43362,0.24311 -0.64761,0.60164 -0.64197,1.07558 z"
     style="font-weight:bold;-inkscape-font-specification:Asap Bold"
     id="path3032"
     inkscape:connector-curvature="0" /><path
     d="m -173.82898,281.67173 c -0.006,0.47585 0.20835,0.84189 0.64197,1.09811 0.43361,0.25623 1.12063,0.38575 2.06107,0.38857 l 1.57677,0 c 0.94043,-0.003 1.62745,-0.13234 2.06107,-0.38857 0.4336,-0.25622 0.64759,-0.62226 0.64197,-1.09811 l 0,-28.83243 c 0.006,-0.47582 -0.20837,-0.84185 -0.64197,-1.09811 -0.43362,-0.2562 -1.12064,-0.38572 -2.06107,-0.38856 l -1.57677,0 c -0.94044,0.003 -1.62746,0.13237 -2.06107,0.38856 -0.43362,0.25626 -0.64761,0.62229 -0.64197,1.09811 z"
     style="font-weight:bold;-inkscape-font-specification:Asap Bold"
     id="path3034"
     inkscape:connector-curvature="0" /><path
     d="m -163.00539,279.4192 c 0.0131,0.83532 0.92166,1.68753 2.72556,2.55663 1.8039,0.8691 4.42435,1.33838 7.86135,1.40783 2.57257,0.0507 4.88329,-0.68139 6.93217,-2.19622 2.04885,-1.51483 3.13194,-4.1165 3.24928,-7.80503 -0.0678,-2.59498 -0.74594,-4.55398 -2.03432,-5.877 -1.28842,-1.323 -2.78025,-2.32045 -4.4755,-2.99235 -1.69528,-0.67187 -3.18712,-1.32863 -4.47551,-1.97027 -1.28841,-0.6416 -1.96651,-1.57851 -2.03431,-2.81074 -0.0451,-0.56405 0.21398,-1.13656 0.77712,-1.71755 0.56312,-0.58095 1.70065,-0.89442 3.41259,-0.94044 1.49229,0.047 2.62982,0.23467 3.41259,0.56314 0.78274,0.32852 1.31208,0.51623 1.58803,0.56313 0.57626,-0.0873 1.12437,-0.58845 1.64435,-1.50357 0.51994,-0.91506 0.79776,-1.72034 0.83344,-2.41584 -0.0394,-0.78179 -0.79404,-1.49321 -2.2638,-2.13428 -1.46979,-0.641 -3.41823,-0.98075 -5.84532,-1.01927 -2.75092,-0.0291 -5.18928,0.68236 -7.31511,2.13428 -2.12583,1.45197 -3.24646,3.81901 -3.3619,7.10111 0.0678,2.59454 0.74591,4.55448 2.03432,5.87982 1.28839,1.32537 2.78023,2.32939 4.4755,3.01206 1.69526,0.68269 3.18709,1.35728 4.4755,2.02376 1.28839,0.6665 1.9665,1.63814 2.03432,2.91492 -0.0554,1.31962 -0.51903,2.20561 -1.39093,2.65799 -0.87194,0.45239 -1.81988,0.66263 -2.84383,0.63071 -1.80203,-0.0863 -3.25492,-0.43173 -4.35865,-1.03616 -1.10375,-0.60443 -1.85835,-0.94982 -2.2638,-1.03617 -0.53029,0.0798 -1.11407,0.57346 -1.75134,1.48104 -0.63729,0.90759 -0.98455,1.75041 -1.0418,2.52847 z"
     style="font-weight:bold;-inkscape-font-specification:Asap Bold"
     id="path3036"
     inkscape:connector-curvature="0" /></g></svg>