<?xml version="1.0" encoding="UTF-8" standalone="no"?>
<!-- Generator: Adobe Illustrator 13.0.2, SVG Export Plug-In . SVG Version: 6.00 Build 14948)  -->

<svg
   xmlns:dc="http://purl.org/dc/elements/1.1/"
   xmlns:cc="http://creativecommons.org/ns#"
   xmlns:rdf="http://www.w3.org/1999/02/22-rdf-syntax-ns#"
   xmlns:svg="http://www.w3.org/2000/svg"
   xmlns="http://www.w3.org/2000/svg"
   xmlns:sodipodi="http://sodipodi.sourceforge.net/DTD/sodipodi-0.dtd"
   xmlns:inkscape="http://www.inkscape.org/namespaces/inkscape"
   id="Layer_1"
   xml:space="preserve"
   height="220"
   viewBox="0 0 219.99501 219.99636"
   width="220"
   version="1.1"
   y="0px"
   x="0px"
   enable-background="new 0 0 176.486 181.437"
   inkscape:version="0.48.2 r9819"
   sodipodi:docname="mobilis-logo.svg"
   inkscape:export-filename="/Users/mcnesium/Downloads/mobilis.png"
   inkscape:export-xdpi="131"
   inkscape:export-ydpi="131"><metadata
   id="metadata3103"><rdf:RDF><cc:Work
       rdf:about=""><dc:format>image/svg+xml</dc:format><dc:type
         rdf:resource="http://purl.org/dc/dcmitype/StillImage" /><dc:title /></cc:Work></rdf:RDF></metadata><defs
   id="defs3101" /><sodipodi:namedview
   pagecolor="#ffffff"
   bordercolor="#666666"
   borderopacity="1"
   objecttolerance="10"
   gridtolerance="10"
   guidetolerance="10"
   inkscape:pageopacity="0"
   inkscape:pageshadow="2"
   inkscape:window-width="1440"
   inkscape:window-height="852"
   id="namedview3099"
   showgrid="false"
   fit-margin-top="10"
   fit-margin-left="10"
   fit-margin-right="10"
   fit-margin-bottom="10"
   inkscape:zoom="2.2281509"
   inkscape:cx="23.482754"
   inkscape:cy="96.517683"
   inkscape:window-x="0"
   inkscape:window-y="0"
   inkscape:window-maximized="1"
   inkscape:current-layer="Layer_1" />
<linearGradient
   id="SVGID_1_"
   y2="0.00048828"
   gradientUnits="userSpaceOnUse"
   x2="-1807.2"
   gradientTransform="translate(1916,0)"
   y1="125.86"
   x1="-1807.2">
	<stop
   stop-color="#1b3967"
   offset=".011"
   id="stop3066" />
	<stop
   stop-color="#13b5ea"
   offset=".467"
   id="stop3068" />
	<stop
   stop-color="#002b5c"
   offset=".9945"
   id="stop3070" />
</linearGradient>


<linearGradient
   id="SVGID_2_"
   y2="1.279e-13"
   gradientUnits="userSpaceOnUse"
   x2="-1073.2"
   gradientTransform="matrix(-1,0,0,1,-1008.2,0)"
   y1="126.85"
   x1="-1073.2">
	<stop
   stop-color="#1b3967"
   offset=".011"
   id="stop3077" />
	<stop
   stop-color="#13b5ea"
   offset=".467"
   id="stop3079" />
	<stop
   stop-color="#002b5c"
   offset=".9945"
   id="stop3081" />
</linearGradient>




	
	
	
	
<path
   sodipodi:type="arc"
   style="fill:#0f3d7f;fill-opacity:1;stroke:none"
   id="path3761"
   sodipodi:cx="42.898914"
   sodipodi:cy="47.450359"
   sodipodi:rx="39.598999"
   sodipodi:ry="39.598999"
   d="m 82.497913,47.450359 a 39.598999,39.598999 0 1 1 -79.1979977,0 39.598999,39.598999 0 1 1 79.1979977,0 z"
   transform="matrix(1.7837243,0,0,1.7837243,33.477639,3.5134116)"
   inkscape:export-filename="/Users/mcnesium/Downloads/mobilis.png"
   inkscape:export-xdpi="131.61"
   inkscape:export-ydpi="131.61" /><rect
   style="fill:#ffffff;fill-opacity:1;stroke:none"
   id="rect3771"
   width="44.582794"
   height="48.438339"
   x="87.706078"
   y="114.40231"
   inkscape:export-filename="/Users/mcnesium/Downloads/mobilis.png"
   inkscape:export-xdpi="131.61"
   inkscape:export-ydpi="131.61" /><path
   style="fill:#0f3d7f;fill-opacity:1"
   d="M 187.51654,79.666676 C 171.1016,86.503477 154.34949,92.079265 137.19152,96.684531 138.95753,122.8511 127.38482,147.93657 110.4417,167.25412 93.859337,148.15704 82.834962,123.16659 84.368458,97.569271 64.923332,92.533789 46.255397,85.225717 27.590107,77.897247 27.414438,120.59044 61.4622,158.85664 95.284506,181.74546 c -6.421216,8.55649 -31.950803,11.6234 -31.819143,20.73283 19.025776,-1.5e-4 34.374676,-5.93248 46.971037,-11.85623 13.39684,6.54922 28.28125,11.69011 46.3592,11.71834 0.063,-7.8219 -23.37152,-11.28202 -31.19578,-20.59494 33.60076,-21.36665 63.35725,-55.8594 66.39241,-97.082729 -0.72736,-4.740402 3.31471,-9.423921 -4.47569,-4.996055 z"
   id="path3072"
   inkscape:connector-curvature="0"
   inkscape:export-filename="/Users/mcnesium/Downloads/mobilis.png"
   inkscape:export-xdpi="131.61"
   inkscape:export-ydpi="131.61"
   sodipodi:nodetypes="cccccccccccc" /><path
   transform="matrix(1.2513438,0,0,1.2513438,56.31618,28.775051)"
   d="m 82.497913,47.450359 a 39.598999,39.598999 0 1 1 -79.1979977,0 39.598999,39.598999 0 1 1 79.1979977,0 z"
   sodipodi:ry="39.598999"
   sodipodi:rx="39.598999"
   sodipodi:cy="47.450359"
   sodipodi:cx="42.898914"
   id="path3767"
   style="fill:#ffffff;fill-opacity:1;stroke:none"
   sodipodi:type="arc"
   inkscape:export-filename="/Users/mcnesium/Downloads/mobilis.png"
   inkscape:export-xdpi="131.61"
   inkscape:export-ydpi="131.61" /><path
   transform="matrix(0.56456585,0,0,0.56456585,85.778209,61.36291)"
   d="m 82.497913,47.450359 a 39.598999,39.598999 0 1 1 -79.1979977,0 39.598999,39.598999 0 1 1 79.1979977,0 z"
   sodipodi:ry="39.598999"
   sodipodi:rx="39.598999"
   sodipodi:cy="47.450359"
   sodipodi:cx="42.898914"
   id="path3769"
   style="fill:#0f3d7f;fill-opacity:1;stroke:none"
   sodipodi:type="arc"
   inkscape:export-filename="/Users/mcnesium/Downloads/mobilis.png"
   inkscape:export-xdpi="131.61"
   inkscape:export-ydpi="131.61" /></svg>