<?xml version="1.0" encoding="UTF-8" standalone="no"?>
<!-- Generator: Adobe Illustrator 13.0.2, SVG Export Plug-In . SVG Version: 6.00 Build 14948)  -->

<svg
   xmlns:dc="http://purl.org/dc/elements/1.1/"
   xmlns:cc="http://creativecommons.org/ns#"
   xmlns:rdf="http://www.w3.org/1999/02/22-rdf-syntax-ns#"
   xmlns:svg="http://www.w3.org/2000/svg"
   xmlns="http://www.w3.org/2000/svg"
   xmlns:sodipodi="http://sodipodi.sourceforge.net/DTD/sodipodi-0.dtd"
   xmlns:inkscape="http://www.inkscape.org/namespaces/inkscape"
   id="Layer_1"
   xml:space="preserve"
   height="220"
   viewBox="0 0 219.99501 219.99636"
   width="220"
   version="1.1"
   y="0px"
   x="0px"
   enable-background="new 0 0 176.486 181.437"
   inkscape:version="0.48.2 r9819"
   sodipodi:docname="mobilis-logo_08.svg"
   inkscape:export-filename="/Users/mcnesium/Downloads/mobilis.png"
   inkscape:export-xdpi="131"
   inkscape:export-ydpi="131"><metadata
   id="metadata3103"><rdf:RDF><cc:Work
       rdf:about=""><dc:format>image/svg+xml</dc:format><dc:type
         rdf:resource="http://purl.org/dc/dcmitype/StillImage" /><dc:title></dc:title></cc:Work></rdf:RDF></metadata><defs
   id="defs3101" /><sodipodi:namedview
   pagecolor="#ffffff"
   bordercolor="#666666"
   borderopacity="1"
   objecttolerance="10"
   gridtolerance="10"
   guidetolerance="10"
   inkscape:pageopacity="0"
   inkscape:pageshadow="2"
   inkscape:window-width="1440"
   inkscape:window-height="852"
   id="namedview3099"
   showgrid="false"
   fit-margin-top="10"
   fit-margin-left="10"
   fit-margin-right="10"
   fit-margin-bottom="10"
   inkscape:zoom="2.2281509"
   inkscape:cx="23.482754"
   inkscape:cy="96.517683"
   inkscape:window-x="0"
   inkscape:window-y="0"
   inkscape:window-maximized="1"
   inkscape:current-layer="Layer_1" />
<linearGradient
   id="SVGID_1_"
   y2="0.00048828"
   gradientUnits="userSpaceOnUse"
   x2="-1807.2"
   gradientTransform="translate(1916,0)"
   y1="125.86"
   x1="-1807.2">
	<stop
   stop-color="#1b3967"
   offset=".011"
   id="stop3066" />
	<stop
   stop-color="#13b5ea"
   offset=".467"
   id="stop3068" />
	<stop
   stop-color="#002b5c"
   offset=".9945"
   id="stop3070" />
</linearGradient>


<linearGradient
   id="SVGID_2_"
   y2="1.279e-13"
   gradientUnits="userSpaceOnUse"
   x2="-1073.2"
   gradientTransform="matrix(-1,0,0,1,-1008.2,0)"
   y1="126.85"
   x1="-1073.2">
	<stop
   stop-color="#1b3967"
   offset=".011"
   id="stop3077" />
	<stop
   stop-color="#13b5ea"
   offset=".467"
   id="stop3079" />
	<stop
   stop-color="#002b5c"
   offset=".9945"
   id="stop3081" />
</linearGradient>




	
	
	
	
<rect
   style="fill:#0f3d7f;fill-opacity:1;fill-rule:evenodd;stroke:none"
   id="rect3105"
   width="139.99768"
   height="196.61171"
   x="39.998665"
   y="11.692326"
   rx="14.330571"
   inkscape:export-filename="/Users/mcnesium/Downloads/mobilis.png"
   inkscape:export-xdpi="131.61"
   inkscape:export-ydpi="131.61" /><rect
   rx="5.1180611"
   y="25.519669"
   x="53.097767"
   height="156.71576"
   width="113.79948"
   id="rect3875"
   style="fill:#ffffff;fill-opacity:1;fill-rule:evenodd;stroke:none"
   inkscape:export-filename="/Users/mcnesium/Downloads/mobilis.png"
   inkscape:export-xdpi="131.61"
   inkscape:export-ydpi="131.61" /><rect
   style="fill:#ffffff;fill-opacity:1;fill-rule:evenodd;stroke:none"
   id="rect3877"
   width="18.329803"
   height="13.103914"
   x="100.8326"
   y="-201.98463"
   rx="1.3189975"
   transform="scale(1,-1)"
   inkscape:export-filename="/Users/mcnesium/Downloads/mobilis.png"
   inkscape:export-xdpi="131.61"
   inkscape:export-ydpi="131.61" /><g
   id="g3222"
   transform="translate(-178.45352,3.1674041)"><path
     style="fill:url(#SVGID_1_-5)"
     id="path3189"
     d="m 136.29,14.189 c 0.077,1.313 -1.786,0.968 -1.786,2.293 0,38.551 -44.72,96.831 -89.847,108.19 v 1.182 c 59.957,-5.51 126.73,-66.8 128.24,-125.85 l -36.6,14.189 z"
     inkscape:connector-curvature="0" /><path
     style="fill:#0f3d7f;fill-opacity:1"
     d="m 335.03125,65.388194 c -7.90598,2.12747 -16.02679,3.780251 -24.0625,5.659029 1.25094,16.709495 -8.56262,33.009937 -22.875,45.296317 -13.90561,-12.25506 -23.52615,-28.248133 -22.1875,-44.742454 -8.85583,-2.051422 -17.83033,-3.817992 -26.46875,-6.381459 -3.33947,21.313732 12.00278,41.827173 32.22652,55.407453 1.28022,1.63776 7.88163,3.05594 3.46098,4.43377 -6.31627,3.46106 -13.80296,5.81391 -21.03125,7.3447 -1.96238,5.05896 2.93586,4.22356 7.51512,3.37797 8.94097,-1.2527 17.66004,-3.48796 25.73488,-6.70114 10.7801,4.68984 22.97815,7.3772 35.375,8.11528 1.66858,-4.22123 -1.945,-5.20048 -6.5625,-5.82759 -5.97109,-1.79364 -13.48089,-4.43878 -17.21875,-7.70591 23.02649,-12.64064 40.73737,-33.60605 38.84375,-56.084597 -0.5638,-1.73635 0.78064,-3.731057 -2.75,-2.191369 z"
     id="path3191"
     inkscape:connector-curvature="0" /><path
     style="fill:url(#SVGID_2_-4)"
     id="path3200"
     d="m 36.599,14.189 c -0.077,1.313 1.787,0.968 1.787,2.293 0,38.551 46.558,97.366 91.688,108.73 v 1.639 C 70.121,121.331 1.514,59.051 0.004,0.001 L 36.603,14.19 z"
     inkscape:connector-curvature="0" /></g></svg>